<?xml version="1.0" standalone="no"?>
<svg viewBox="0 0 200 200" xmlns="http://www.w3.org/2000/svg">
  <path fill="#FF0066" d="M22.7,-42.1C34.4,-32.6,52.3,-36.6,62.4,-31.8C72.5,-27,74.8,-13.5,76.2,0.8C77.7,15.2,78.2,30.3,72.4,42.6C66.6,54.8,54.5,64.1,41.4,70.7C28.2,77.2,14.1,81.1,4.3,73.6C-5.5,66.1,-11,47.3,-25.1,41.3C-39.1,35.3,-61.8,42,-71.8,37.3C-81.8,32.5,-79.1,16.3,-67.1,7C-55,-2.3,-33.6,-4.7,-24.3,-10.7C-15.1,-16.8,-18,-26.5,-16,-41.6C-13.9,-56.8,-7,-77.4,-0.7,-76.1C5.5,-74.9,11,-51.7,22.7,-42.1Z" transform="translate(100 100)" />
</svg>
